<svg width="15" height="18" viewBox="0 0 21 18" fill="none" xmlns="http://www.w3.org/2000/svg">
<path d="M0.45166 17.3546V11.6243C0.45166 9.46279 0.78179 7.45213 1.44205 5.59227C2.14947 3.68215 3.35209 1.82229 5.0499 0.0126953L7.95033 2.50089C6.62981 3.95861 5.73374 5.31581 5.26213 6.57247C4.79051 7.77887 4.5547 9.06066 4.5547 10.4179L2.78615 8.98526H8.30404V17.3546H0.45166ZM12.8315 17.3546V11.6243C12.8315 9.46279 13.1617 7.45213 13.8219 5.59227C14.5293 3.68215 15.732 1.82229 17.4298 0.0126953L20.3302 2.50089C19.0097 3.95861 18.1136 5.31581 17.642 6.57247C17.1704 7.77887 16.9346 9.06066 16.9346 10.4179L15.166 8.98526H20.6839V17.3546H12.8315Z" fill="#D9D9D9"/>
</svg>
