<svg width="16" height="13" viewBox="0 0 16 13" fill="none" xmlns="http://www.w3.org/2000/svg">
<path d="M0.887817 12.4267V8.42019C0.887817 6.90897 1.11863 5.50318 1.58027 4.20282C2.07487 2.86732 2.91571 1.56697 4.10276 0.301758L6.13065 2.04142C5.20739 3.06062 4.58088 4.00953 4.25114 4.88815C3.92141 5.73162 3.75654 6.62781 3.75654 7.57672L2.52002 6.57509H6.37795V12.4267H0.887817ZM9.54344 12.4267V8.42019C9.54344 6.90897 9.77426 5.50318 10.2359 4.20282C10.7305 2.86732 11.5713 1.56697 12.7584 0.301758L14.7863 2.04142C13.863 3.06062 13.2365 4.00953 12.9068 4.88815C12.577 5.73162 12.4122 6.62781 12.4122 7.57672L11.1756 6.57509H15.0336V12.4267H9.54344Z" fill="#292929"/>
</svg>
