<svg width="55" height="55" viewBox="0 0 55 55" fill="none" xmlns="http://www.w3.org/2000/svg">
<rect x="0.736234" y="1.16867" width="53.0702" height="52.8886" stroke="#858585" stroke-width="1.36077"/>
<path d="M37.477 27.6127C37.477 21.995 32.9077 17.4409 27.2712 17.4409C21.6347 17.4409 17.0654 21.995 17.0654 27.6127C17.0654 32.6896 20.7975 36.8978 25.6766 37.6608V30.5529H23.0853V27.6127H25.6766V25.3717C25.6766 22.8224 27.2003 21.4143 29.5315 21.4143C30.6477 21.4143 31.816 21.6129 31.816 21.6129V24.1161H30.5291C29.2614 24.1161 28.8659 24.9003 28.8659 25.7055V27.6127H31.6964L31.2439 30.5529H28.8659V37.6608C33.7449 36.8978 37.477 32.6896 37.477 27.6127Z" fill="#858585"/>
</svg>
