<svg width="344" height="420" viewBox="0 0 344 420" fill="none" xmlns="http://www.w3.org/2000/svg">
<g filter="url(#filter0_dd_1270_1284)">
<rect x="16" y="0.956055" width="312" height="378.3" fill="black" fill-opacity="0.25" shape-rendering="crispEdges"/>
</g>
<path d="M42.6214 362.367C42.0182 362.367 41.5112 362.255 41.1004 362.031C40.6896 361.803 40.3802 361.478 40.1722 361.056C39.9694 360.635 39.868 360.133 39.868 359.551C39.868 358.969 39.9772 358.467 40.1956 358.046C40.414 357.624 40.726 357.299 41.1316 357.071C41.5424 356.842 42.0338 356.727 42.6058 356.727C43.0062 356.727 43.3546 356.785 43.651 356.899C43.9474 357.013 44.2126 357.18 44.4466 357.398L44.1736 357.975C44.0072 357.83 43.846 357.713 43.69 357.624C43.534 357.536 43.3702 357.474 43.1986 357.437C43.0322 357.396 42.8346 357.375 42.6058 357.375C41.9662 357.375 41.4774 357.565 41.1394 357.944C40.8014 358.324 40.6324 358.862 40.6324 359.559C40.6324 360.266 40.7962 360.804 41.1238 361.173C41.4514 361.543 41.961 361.727 42.6526 361.727C42.897 361.727 43.1362 361.704 43.3702 361.657C43.6042 361.61 43.8278 361.543 44.041 361.454L43.8928 361.821V359.957H42.5122V359.395H44.5168V361.969C44.2828 362.089 43.9942 362.185 43.651 362.258C43.3078 362.33 42.9646 362.367 42.6214 362.367ZM46.5713 362.297V356.798H48.8489C49.4365 356.798 49.8889 356.935 50.2061 357.211C50.5285 357.487 50.6897 357.871 50.6897 358.365C50.6897 358.693 50.6169 358.971 50.4713 359.2C50.3257 359.429 50.1203 359.603 49.8551 359.723C49.5951 359.842 49.2909 359.902 48.9425 359.902L49.0751 359.793H49.2623C49.4755 359.793 49.6653 359.847 49.8317 359.957C49.9981 360.061 50.1359 360.232 50.2451 360.471L51.0251 362.297H50.2217L49.4651 360.487C49.3767 360.263 49.2467 360.118 49.0751 360.05C48.9087 359.983 48.6981 359.949 48.4433 359.949H47.2967V362.297H46.5713ZM47.2967 359.387H48.7397C49.1401 359.387 49.4443 359.301 49.6523 359.13C49.8655 358.958 49.9721 358.709 49.9721 358.381C49.9721 358.059 49.8655 357.814 49.6523 357.648C49.4443 357.476 49.1401 357.39 48.7397 357.39H47.2967V359.387ZM52.1217 362.297L54.5553 356.798H55.1871L57.6597 362.297H56.9109L56.2323 360.737L56.5443 360.924H53.1981L53.5413 360.737L52.8627 362.297H52.1217ZM54.8595 357.609L53.6427 360.495L53.4555 360.331H56.2869L56.1387 360.495L54.8907 357.609H54.8595ZM54.6099 356.33L55.5303 354.988H56.3103L55.1403 356.33H54.6099ZM59.2219 362.297V356.798H62.7007V357.39H59.9473V359.231H62.5213V359.824H59.9473V362.297H59.2219ZM64.4122 362.297V356.798H65.1376V362.297H64.4122ZM69.6747 362.367C69.1235 362.367 68.6503 362.252 68.2551 362.024C67.8651 361.795 67.5661 361.47 67.3581 361.049C67.1501 360.622 67.0461 360.12 67.0461 359.543C67.0461 358.966 67.1501 358.467 67.3581 358.046C67.5661 357.624 67.8651 357.299 68.2551 357.071C68.6503 356.842 69.1235 356.727 69.6747 356.727C70.0699 356.727 70.4209 356.787 70.7277 356.907C71.0345 357.021 71.3023 357.19 71.5311 357.414L71.2659 357.999C71.0163 357.78 70.7693 357.624 70.5249 357.531C70.2857 357.432 70.0075 357.383 69.6903 357.383C69.0819 357.383 68.6165 357.57 68.2941 357.944C67.9717 358.319 67.8105 358.852 67.8105 359.543C67.8105 360.235 67.9717 360.77 68.2941 361.15C68.6165 361.524 69.0819 361.712 69.6903 361.712C70.0075 361.712 70.2857 361.665 70.5249 361.571C70.7693 361.472 71.0163 361.314 71.2659 361.095L71.5311 361.673C71.3023 361.896 71.0319 362.068 70.7199 362.187C70.4131 362.307 70.0647 362.367 69.6747 362.367ZM72.9982 359.543C72.9982 358.966 73.0996 358.467 73.3024 358.046C73.5052 357.624 73.7964 357.299 74.176 357.071C74.5608 356.842 75.0184 356.727 75.5488 356.727C76.074 356.727 76.5264 356.842 76.906 357.071C77.2908 357.299 77.5872 357.624 77.7952 358.046C78.0032 358.467 78.1072 358.963 78.1072 359.535C78.1072 360.113 78.0032 360.614 77.7952 361.041C77.5872 361.462 77.2908 361.79 76.906 362.024C76.5264 362.252 76.074 362.367 75.5488 362.367C75.0184 362.367 74.5634 362.252 74.1838 362.024C73.8042 361.79 73.5104 361.462 73.3024 361.041C73.0996 360.614 72.9982 360.115 72.9982 359.543ZM73.7626 359.543C73.7626 360.23 73.9134 360.765 74.215 361.15C74.5166 361.535 74.9612 361.727 75.5488 361.727C76.1156 361.727 76.555 361.537 76.867 361.158C77.1842 360.773 77.3428 360.235 77.3428 359.543C77.3428 358.852 77.1868 358.316 76.8748 357.936C76.5628 357.557 76.1208 357.367 75.5488 357.367C74.9612 357.367 74.5166 357.557 74.215 357.936C73.9134 358.316 73.7626 358.852 73.7626 359.543ZM82.3117 362.297L84.7453 356.798H85.3771L87.8497 362.297H87.1009L86.4223 360.737L86.7343 360.924H83.3881L83.7313 360.737L83.0527 362.297H82.3117ZM85.0495 357.609L83.8327 360.495L83.6455 360.331H86.4769L86.3287 360.495L85.0807 357.609H85.0495ZM90.1283 362.297V357.414H88.2251V356.798H92.7725V357.414H90.8615V362.297H90.1283ZM96.5198 362.367C95.7658 362.367 95.2042 362.177 94.835 361.797C94.471 361.413 94.289 360.848 94.289 360.105V356.798H95.0222V360.081C95.0222 360.627 95.1418 361.038 95.381 361.314C95.6202 361.589 95.9998 361.727 96.5198 361.727C97.019 361.727 97.3934 361.589 97.643 361.314C97.8978 361.038 98.0252 360.627 98.0252 360.081V356.798H98.7428V360.105C98.7428 360.848 98.5556 361.413 98.1812 361.797C97.8068 362.177 97.253 362.367 96.5198 362.367ZM100.229 362.297L102.662 356.798H103.294L105.767 362.297H105.018L104.339 360.737L104.651 360.924H101.305L101.648 360.737L100.97 362.297H100.229ZM102.967 357.609L101.75 360.495L101.563 360.331H104.394L104.246 360.495L102.998 357.609H102.967ZM107.329 362.297V356.798H108.054V361.673H110.792V362.297H107.329ZM112.39 362.297V356.798H113.115V362.297H112.39ZM114.899 362.297V361.758L118.167 357.156V357.414H114.899V356.798H118.861V357.328L115.585 361.938V361.68H118.955V362.297H114.899ZM120.038 362.297L122.472 356.798H123.103L125.576 362.297H124.827L124.149 360.737L124.461 360.924H121.114L121.458 360.737L120.779 362.297H120.038ZM122.776 357.609L121.559 360.495L121.372 360.331H124.203L124.055 360.495L122.807 357.609H122.776ZM127.138 362.297V356.798H129.002C129.616 356.798 130.133 356.904 130.555 357.117C130.981 357.331 131.303 357.643 131.522 358.053C131.74 358.459 131.849 358.956 131.849 359.543C131.849 360.131 131.74 360.63 131.522 361.041C131.303 361.452 130.981 361.764 130.555 361.977C130.133 362.19 129.616 362.297 129.002 362.297H127.138ZM127.864 361.68H128.948C129.681 361.68 130.224 361.504 130.578 361.15C130.932 360.796 131.108 360.261 131.108 359.543C131.108 358.826 130.932 358.293 130.578 357.944C130.224 357.591 129.681 357.414 128.948 357.414H127.864V361.68ZM133.565 359.543C133.565 358.966 133.667 358.467 133.87 358.046C134.072 357.624 134.364 357.299 134.743 357.071C135.128 356.842 135.586 356.727 136.116 356.727C136.641 356.727 137.094 356.842 137.473 357.071C137.858 357.299 138.154 357.624 138.362 358.046C138.57 358.467 138.674 358.963 138.674 359.535C138.674 360.113 138.57 360.614 138.362 361.041C138.154 361.462 137.858 361.79 137.473 362.024C137.094 362.252 136.641 362.367 136.116 362.367C135.586 362.367 135.131 362.252 134.751 362.024C134.371 361.79 134.078 361.462 133.87 361.041C133.667 360.614 133.565 360.115 133.565 359.543ZM134.33 359.543C134.33 360.23 134.481 360.765 134.782 361.15C135.084 361.535 135.528 361.727 136.116 361.727C136.683 361.727 137.122 361.537 137.434 361.158C137.751 360.773 137.91 360.235 137.91 359.543C137.91 358.852 137.754 358.316 137.442 357.936C137.13 357.557 136.688 357.367 136.116 357.367C135.528 357.367 135.084 357.557 134.782 357.936C134.481 358.316 134.33 358.852 134.33 359.543ZM144.759 362.297V357.414H142.856V356.798H147.403V357.414H145.492V362.297H144.759ZM148.958 362.297V356.798H151.236C151.824 356.798 152.276 356.935 152.593 357.211C152.916 357.487 153.077 357.871 153.077 358.365C153.077 358.693 153.004 358.971 152.858 359.2C152.713 359.429 152.507 359.603 152.242 359.723C151.982 359.842 151.678 359.902 151.33 359.902L151.462 359.793H151.649C151.863 359.793 152.052 359.847 152.219 359.957C152.385 360.061 152.523 360.232 152.632 360.471L153.412 362.297H152.609L151.852 360.487C151.764 360.263 151.634 360.118 151.462 360.05C151.296 359.983 151.085 359.949 150.83 359.949H149.684V362.297H148.958ZM149.684 359.387H151.127C151.527 359.387 151.831 359.301 152.039 359.13C152.253 358.958 152.359 358.709 152.359 358.381C152.359 358.059 152.253 357.814 152.039 357.648C151.831 357.476 151.527 357.39 151.127 357.39H149.684V359.387ZM155.162 362.297V356.798H155.887V362.297H155.162ZM157.999 362.297V356.798H158.638L160.807 361.68H160.573L162.741 356.798H163.373V362.297H162.71V357.765H162.952L160.916 362.297H160.456L158.42 357.765H158.662V362.297H157.999ZM165.497 362.297V356.798H169.054V357.39H166.199V359.208H168.874V359.801H166.199V361.704H169.054V362.297H165.497ZM172.619 362.367C172.177 362.367 171.779 362.31 171.425 362.195C171.072 362.081 170.765 361.92 170.505 361.712L170.755 361.134C170.937 361.27 171.121 361.384 171.308 361.478C171.496 361.566 171.696 361.634 171.909 361.68C172.127 361.722 172.364 361.743 172.619 361.743C173.071 361.743 173.404 361.662 173.617 361.501C173.836 361.335 173.945 361.116 173.945 360.846C173.945 360.612 173.869 360.432 173.719 360.308C173.568 360.183 173.305 360.084 172.931 360.011L172.096 359.84C171.592 359.736 171.215 359.567 170.965 359.333C170.721 359.093 170.599 358.771 170.599 358.365C170.599 358.038 170.684 357.752 170.856 357.507C171.033 357.258 171.275 357.065 171.581 356.93C171.893 356.795 172.257 356.727 172.673 356.727C173.058 356.727 173.414 356.785 173.742 356.899C174.07 357.013 174.345 357.182 174.569 357.406L174.319 357.96C174.085 357.747 173.833 357.593 173.563 357.5C173.297 357.401 172.996 357.351 172.658 357.351C172.247 357.351 171.922 357.44 171.683 357.617C171.444 357.793 171.324 358.033 171.324 358.334C171.324 358.573 171.399 358.763 171.55 358.904C171.701 359.039 171.951 359.143 172.299 359.216L173.134 359.379C173.664 359.483 174.051 359.647 174.296 359.871C174.545 360.094 174.67 360.404 174.67 360.799C174.67 361.111 174.587 361.387 174.421 361.626C174.254 361.86 174.018 362.042 173.711 362.172C173.404 362.302 173.04 362.367 172.619 362.367ZM177.683 362.297V357.414H175.78V356.798H180.327V357.414H178.416V362.297H177.683ZM181.883 362.297V356.798H184.161C184.748 356.798 185.201 356.935 185.518 357.211C185.84 357.487 186.001 357.871 186.001 358.365C186.001 358.693 185.929 358.971 185.783 359.2C185.637 359.429 185.432 359.603 185.167 359.723C184.907 359.842 184.603 359.902 184.254 359.902L184.387 359.793H184.574C184.787 359.793 184.977 359.847 185.143 359.957C185.31 360.061 185.448 360.232 185.557 360.471L186.337 362.297H185.533L184.777 360.487C184.688 360.263 184.558 360.118 184.387 360.05C184.22 359.983 184.01 359.949 183.755 359.949H182.608V362.297H181.883ZM182.608 359.387H184.051C184.452 359.387 184.756 359.301 184.964 359.13C185.177 358.958 185.284 358.709 185.284 358.381C185.284 358.059 185.177 357.814 184.964 357.648C184.756 357.476 184.452 357.39 184.051 357.39H182.608V359.387ZM187.433 362.297L189.867 356.798H190.499L192.971 362.297H192.223L191.544 360.737L191.856 360.924H188.51L188.853 360.737L188.174 362.297H187.433ZM190.171 357.609L188.954 360.495L188.767 360.331H191.599L191.45 360.495L190.202 357.609H190.171ZM194.534 362.297V356.798H195.259V361.673H197.997V362.297H194.534ZM199.594 362.297V356.798H200.234L202.402 361.68H202.168L204.337 356.798H204.969V362.297H204.306V357.765H204.547L202.512 362.297H202.051L200.016 357.765H200.257V362.297H199.594ZM207.093 362.297V356.798H210.65V357.39H207.795V359.208H210.47V359.801H207.795V361.704H210.65V362.297H207.093ZM212.474 362.297V356.798H213.035L216.483 361.353H216.296V356.798H216.974V362.297H216.42L212.973 357.741H213.152V362.297H212.474ZM220.407 362.297V357.414H218.503V356.798H223.051V357.414H221.14V362.297H220.407ZM224.606 362.297V356.798H228.163V357.39H225.308V359.208H227.984V359.801H225.308V361.704H228.163V362.297H224.606Z" fill="#F2F2F2"/>
<g filter="url(#filter1_f_1270_1284)">
<path d="M47.98 308.277L102.005 256.011L166.766 238.59L188.931 170.578L234.991 151.481L256.116 131.714L304.6 108.597" stroke="#0074EB" stroke-width="1.56"/>
</g>
<path d="M47.98 308.277L102.005 256.011L166.766 238.59L188.931 170.578L234.991 151.481L256.116 131.714L304.6 108.597" stroke="#0074EB" stroke-width="1.56"/>
<path d="M40.4608 343.897V343.036L43.5308 339.816C43.9302 339.408 44.2256 339.017 44.4169 338.643C44.6166 338.268 44.7164 337.882 44.7164 337.482C44.7164 336.991 44.5625 336.621 44.2547 336.372C43.9552 336.114 43.5142 335.985 42.9318 335.985C42.4825 335.985 42.0582 336.068 41.6588 336.234C41.2678 336.392 40.8934 336.638 40.5356 336.971L40.1238 336.084C40.4649 335.752 40.8934 335.485 41.4092 335.286C41.9334 335.086 42.4825 334.986 43.0566 334.986C43.9552 334.986 44.6499 335.194 45.1408 335.61C45.6316 336.018 45.8771 336.604 45.8771 337.37C45.8771 337.927 45.7398 338.46 45.4652 338.967C45.199 339.467 44.8038 339.982 44.2796 340.515L41.5964 343.236V342.911H46.239V343.897H40.4608ZM51.8751 344.009C50.8684 344.009 50.0946 343.622 49.5538 342.849C49.013 342.067 48.7426 340.948 48.7426 339.492C48.7426 338.011 49.013 336.892 49.5538 336.134C50.0946 335.369 50.8684 334.986 51.8751 334.986C52.8901 334.986 53.6639 335.369 54.1964 336.134C54.7372 336.892 55.0076 338.006 55.0076 339.479C55.0076 340.943 54.7372 342.067 54.1964 342.849C53.6556 343.622 52.8818 344.009 51.8751 344.009ZM51.8751 343.023C52.5407 343.023 53.0357 342.736 53.3602 342.162C53.693 341.588 53.8594 340.694 53.8594 339.479C53.8594 338.264 53.693 337.378 53.3602 336.821C53.0357 336.255 52.5407 335.972 51.8751 335.972C51.2178 335.972 50.7228 336.255 50.39 336.821C50.0572 337.378 49.8908 338.264 49.8908 339.479C49.8908 340.694 50.0572 341.588 50.39 342.162C50.7228 342.736 51.2178 343.023 51.8751 343.023ZM58.4097 343.897V342.911H60.4689V336.084H61.0555L58.5969 337.607V336.471L60.7934 335.099H61.6296V342.911H63.564V343.897H58.4097ZM69.4871 344.009C69.1044 344.009 68.7258 343.968 68.3514 343.884C67.9853 343.801 67.6401 343.685 67.3156 343.535C66.9911 343.377 66.7082 343.186 66.4669 342.961L66.8788 342.062C67.2865 342.387 67.7025 342.628 68.1268 342.786C68.5511 342.936 68.9962 343.011 69.4621 343.011C70.0778 343.011 70.5604 342.849 70.9098 342.524C71.2593 342.2 71.434 341.767 71.434 341.226C71.434 340.669 71.2676 340.22 70.9348 339.878C70.602 339.529 70.1402 339.354 69.5495 339.354C69.1418 339.354 68.7716 339.437 68.4388 339.604C68.1143 339.762 67.8273 340.016 67.5777 340.365H66.754V335.099H72.033V336.084H67.8772V339.417H67.5777C67.8023 339.084 68.106 338.826 68.4887 338.643C68.8797 338.46 69.3165 338.368 69.7991 338.368C70.3649 338.368 70.8516 338.485 71.2593 338.718C71.6753 338.951 71.9956 339.279 72.2202 339.704C72.4532 340.12 72.5697 340.606 72.5697 341.164C72.5697 341.721 72.4449 342.216 72.1953 342.649C71.9457 343.073 71.5879 343.406 71.122 343.647C70.6644 343.889 70.1194 344.009 69.4871 344.009Z" fill="#F2F2F2"/>
<path d="M270.561 343.897V343.036L273.631 339.816C274.03 339.408 274.326 339.017 274.517 338.643C274.717 338.268 274.816 337.882 274.816 337.482C274.816 336.991 274.663 336.621 274.355 336.372C274.055 336.114 273.614 335.985 273.032 335.985C272.583 335.985 272.158 336.068 271.759 336.234C271.368 336.392 270.993 336.638 270.636 336.971L270.224 336.084C270.565 335.752 270.993 335.485 271.509 335.286C272.033 335.086 272.583 334.986 273.157 334.986C274.055 334.986 274.75 335.194 275.241 335.61C275.732 336.018 275.977 336.604 275.977 337.37C275.977 337.927 275.84 338.46 275.565 338.967C275.299 339.467 274.904 339.982 274.38 340.515L271.696 343.236V342.911H276.339V343.897H270.561ZM281.975 344.009C280.968 344.009 280.195 343.622 279.654 342.849C279.113 342.067 278.843 340.948 278.843 339.492C278.843 338.011 279.113 336.892 279.654 336.134C280.195 335.369 280.968 334.986 281.975 334.986C282.99 334.986 283.764 335.369 284.296 336.134C284.837 336.892 285.108 338.006 285.108 339.479C285.108 340.943 284.837 342.067 284.296 342.849C283.756 343.622 282.982 344.009 281.975 344.009ZM281.975 343.023C282.641 343.023 283.136 342.736 283.46 342.162C283.793 341.588 283.959 340.694 283.959 339.479C283.959 338.264 283.793 337.378 283.46 336.821C283.136 336.255 282.641 335.972 281.975 335.972C281.318 335.972 280.823 336.255 280.49 336.821C280.157 337.378 279.991 338.264 279.991 339.479C279.991 340.694 280.157 341.588 280.49 342.162C280.823 342.736 281.318 343.023 281.975 343.023ZM288.023 343.897V343.036L291.093 339.816C291.492 339.408 291.788 339.017 291.979 338.643C292.179 338.268 292.279 337.882 292.279 337.482C292.279 336.991 292.125 336.621 291.817 336.372C291.517 336.114 291.076 335.985 290.494 335.985C290.045 335.985 289.62 336.068 289.221 336.234C288.83 336.392 288.456 336.638 288.098 336.971L287.686 336.084C288.027 335.752 288.456 335.485 288.972 335.286C289.496 335.086 290.045 334.986 290.619 334.986C291.517 334.986 292.212 335.194 292.703 335.61C293.194 336.018 293.439 336.604 293.439 337.37C293.439 337.927 293.302 338.46 293.028 338.967C292.761 339.467 292.366 339.982 291.842 340.515L289.159 343.236V342.911H293.801V343.897H288.023ZM299.375 344.009C298.776 344.009 298.202 343.918 297.653 343.735C297.112 343.552 296.658 343.294 296.292 342.961L296.704 342.062C297.112 342.395 297.532 342.636 297.965 342.786C298.397 342.936 298.855 343.011 299.338 343.011C299.978 343.011 300.465 342.878 300.798 342.612C301.13 342.337 301.297 341.946 301.297 341.438C301.297 340.939 301.126 340.561 300.785 340.303C300.452 340.045 299.962 339.916 299.313 339.916H297.965V338.955H299.225C299.774 338.955 300.215 338.813 300.548 338.531C300.881 338.248 301.047 337.861 301.047 337.37C301.047 336.921 300.893 336.58 300.586 336.347C300.286 336.105 299.858 335.985 299.3 335.985C298.36 335.985 297.545 336.313 296.854 336.971L296.442 336.084C296.792 335.735 297.224 335.465 297.74 335.273C298.256 335.082 298.801 334.986 299.375 334.986C300.249 334.986 300.935 335.186 301.434 335.585C301.933 335.985 302.183 336.542 302.183 337.258C302.183 337.798 302.029 338.264 301.721 338.655C301.422 339.038 301.01 339.292 300.486 339.417V339.279C301.101 339.388 301.58 339.641 301.921 340.041C302.262 340.432 302.433 340.923 302.433 341.513C302.433 342.287 302.158 342.899 301.609 343.348C301.068 343.789 300.323 344.009 299.375 344.009Z" fill="#F2F2F2"/>
<path d="M259.046 64.7047V60.6799H255.077V59.4069H259.046V55.4757H260.356V59.4069H264.325V60.6799H260.356V64.7047H259.046ZM269.503 65.416V63.9371H272.592V53.6973H273.472L269.784 55.9811V54.2776L273.079 52.2184H274.333V63.9371H277.235V65.416H269.503ZM287.373 65.416V62.6267H281.177V61.3725L287.654 52.2184H289.077V61.2415H291.061V62.6267H289.077V65.416H287.373ZM287.373 61.2415V54.2776H287.804L282.581 61.6533V61.2415H287.373ZM298.898 65.5845C297.999 65.5845 297.138 65.4472 296.314 65.1727C295.503 64.8981 294.823 64.5112 294.274 64.012L294.892 62.6642C295.503 63.1634 296.133 63.5253 296.782 63.7499C297.431 63.9746 298.118 64.0869 298.842 64.0869C299.803 64.0869 300.533 63.8872 301.032 63.4879C301.531 63.076 301.781 62.4895 301.781 61.7282C301.781 60.9794 301.525 60.4115 301.013 60.0247C300.514 59.6378 299.778 59.4443 298.804 59.4443H296.782V58.0029H298.673C299.497 58.0029 300.158 57.7907 300.657 57.3664C301.157 56.9421 301.406 56.3618 301.406 55.6255C301.406 54.9515 301.175 54.4399 300.714 54.0904C300.264 53.7285 299.622 53.5475 298.785 53.5475C297.375 53.5475 296.152 54.0405 295.116 55.0264L294.499 53.6973C295.023 53.1731 295.672 52.7675 296.445 52.4805C297.219 52.1935 298.037 52.0499 298.898 52.0499C300.208 52.0499 301.238 52.3495 301.987 52.9485C302.735 53.5475 303.11 54.3837 303.11 55.457C303.11 56.2682 302.879 56.9671 302.417 57.5536C301.968 58.1277 301.35 58.5083 300.564 58.6955V58.4896C301.487 58.6519 302.205 59.0325 302.717 59.6315C303.228 60.2181 303.484 60.9544 303.484 61.8405C303.484 63.0011 303.072 63.9184 302.249 64.5923C301.437 65.2538 300.32 65.5845 298.898 65.5845Z" fill="#F2F2F2"/>
<path d="M242.782 82.5283C241.9 82.5283 241.143 82.3453 240.51 81.9792C239.886 81.6131 239.408 81.0931 239.075 80.4192C238.742 79.737 238.576 78.9341 238.576 78.0106C238.576 77.0871 238.742 76.2883 239.075 75.6144C239.408 74.9405 239.886 74.4205 240.51 74.0544C241.143 73.6883 241.9 73.5053 242.782 73.5053C243.414 73.5053 243.976 73.601 244.466 73.7923C244.957 73.9754 245.386 74.2458 245.752 74.6035L245.328 75.5395C244.928 75.1901 244.533 74.9405 244.142 74.7907C243.759 74.6327 243.314 74.5536 242.807 74.5536C241.833 74.5536 241.089 74.8531 240.573 75.4522C240.057 76.0512 239.799 76.904 239.799 78.0106C239.799 79.1171 240.057 79.9741 240.573 80.5815C241.089 81.1805 241.833 81.48 242.807 81.48C243.314 81.48 243.759 81.4051 244.142 81.2554C244.533 81.0973 244.928 80.8435 245.328 80.4941L245.752 81.4176C245.386 81.7754 244.953 82.0499 244.454 82.2413C243.963 82.4327 243.406 82.5283 242.782 82.5283ZM248.692 82.416V73.6176H249.852V81.4176H254.233V82.416H248.692ZM256.789 82.416V73.6176H257.95V82.416H256.789ZM261.328 82.416V73.6176H267.019V74.5661H262.451V77.4739H266.732V78.4224H262.451V81.4675H267.019V82.416H261.328ZM269.937 82.416V73.6176H270.836L276.352 80.9059H276.052V73.6176H277.138V82.416H276.252L270.736 75.1277H271.023V82.416H269.937ZM282.63 82.416V74.6035H279.585V73.6176H286.861V74.6035H283.803V82.416H282.63ZM289.349 82.416V73.6176H295.04V74.5661H290.473V77.4739H294.753V78.4224H290.473V81.4675H295.04V82.416H289.349ZM300.745 82.5283C300.037 82.5283 299.401 82.4368 298.835 82.2538C298.269 82.0707 297.778 81.8128 297.362 81.48L297.762 80.5565C298.053 80.7728 298.348 80.9559 298.648 81.1056C298.947 81.2471 299.268 81.3552 299.609 81.4301C299.958 81.4967 300.337 81.5299 300.745 81.5299C301.468 81.5299 302.001 81.401 302.342 81.1431C302.691 80.8768 302.866 80.5274 302.866 80.0947C302.866 79.7203 302.746 79.4333 302.504 79.2336C302.263 79.0339 301.843 78.8759 301.244 78.7594L299.908 78.4848C299.101 78.3184 298.498 78.048 298.099 77.6736C297.708 77.2909 297.512 76.7751 297.512 76.1261C297.512 75.6019 297.65 75.1443 297.924 74.7533C298.207 74.3539 298.594 74.0461 299.085 73.8298C299.584 73.6135 300.166 73.5053 300.832 73.5053C301.448 73.5053 302.018 73.5968 302.542 73.7799C303.066 73.9629 303.507 74.2333 303.865 74.5911L303.465 75.4771C303.091 75.136 302.687 74.8906 302.255 74.7408C301.83 74.5827 301.348 74.5037 300.807 74.5037C300.15 74.5037 299.63 74.6451 299.247 74.928C298.864 75.2109 298.673 75.5936 298.673 76.0762C298.673 76.4589 298.794 76.7626 299.035 76.9872C299.276 77.2035 299.675 77.3699 300.233 77.4864L301.568 77.7485C302.417 77.9149 303.037 78.177 303.428 78.5347C303.827 78.8925 304.027 79.3875 304.027 80.0199C304.027 80.5191 303.894 80.96 303.627 81.3427C303.361 81.7171 302.983 82.0083 302.492 82.2163C302.001 82.4243 301.418 82.5283 300.745 82.5283Z" fill="#0074EB"/>
<path d="M39.4 45.416V322.706H304.6" stroke="#1E1E1E" stroke-width="1.56"/>
<defs>
<filter id="filter0_dd_1270_1284" x="0.400002" y="0.956055" width="343.2" height="418.414" filterUnits="userSpaceOnUse" color-interpolation-filters="sRGB">
<feFlood flood-opacity="0" result="BackgroundImageFix"/>
<feColorMatrix in="SourceAlpha" type="matrix" values="0 0 0 0 0 0 0 0 0 0 0 0 0 0 0 0 0 0 127 0" result="hardAlpha"/>
<feMorphology radius="8.91428" operator="erode" in="SourceAlpha" result="effect1_dropShadow_1270_1284"/>
<feOffset dy="24.5143"/>
<feGaussianBlur stdDeviation="12.2571"/>
<feComposite in2="hardAlpha" operator="out"/>
<feColorMatrix type="matrix" values="0 0 0 0 0 0 0 0 0 0 0 0 0 0 0 0 0 0 0.8 0"/>
<feBlend mode="normal" in2="BackgroundImageFix" result="effect1_dropShadow_1270_1284"/>
<feColorMatrix in="SourceAlpha" type="matrix" values="0 0 0 0 0 0 0 0 0 0 0 0 0 0 0 0 0 0 127 0" result="hardAlpha"/>
<feOffset dy="4.45714"/>
<feGaussianBlur stdDeviation="2.22857"/>
<feComposite in2="hardAlpha" operator="out"/>
<feColorMatrix type="matrix" values="0 0 0 0 0 0 0 0 0 0 0 0 0 0 0 0 0 0 0.25 0"/>
<feBlend mode="normal" in2="effect1_dropShadow_1270_1284" result="effect2_dropShadow_1270_1284"/>
<feBlend mode="normal" in="SourceGraphic" in2="effect2_dropShadow_1270_1284" result="shape"/>
</filter>
<filter id="filter1_f_1270_1284" x="25.1519" y="85.6069" width="302.069" height="245.516" filterUnits="userSpaceOnUse" color-interpolation-filters="sRGB">
<feFlood flood-opacity="0" result="BackgroundImageFix"/>
<feBlend mode="normal" in="SourceGraphic" in2="BackgroundImageFix" result="shape"/>
<feGaussianBlur stdDeviation="11.1429" result="effect1_foregroundBlur_1270_1284"/>
</filter>
</defs>
</svg>
