<svg width="55" height="55" viewBox="0 0 55 55" fill="none" xmlns="http://www.w3.org/2000/svg">
<rect x="0.888822" y="1.16867" width="53.0702" height="52.8886" stroke="#858585" stroke-width="1.36077"/>
<path d="M27.4239 19.2732C30.1508 19.2732 30.4737 19.2852 31.5461 19.3328C32.5428 19.3765 33.081 19.5434 33.4398 19.6825C33.9142 19.8653 34.257 20.0878 34.6119 20.4414C34.9707 20.799 35.1899 21.1367 35.3733 21.6096C35.5128 21.9672 35.6803 22.5075 35.7241 23.4969C35.772 24.5697 35.7839 24.8915 35.7839 27.6053C35.7839 30.3231 35.772 30.6449 35.7241 31.7138C35.6803 32.7071 35.5128 33.2435 35.3733 33.6011C35.1899 34.0739 34.9667 34.4156 34.6119 34.7693C34.2531 35.1269 33.9142 35.3454 33.4398 35.5282C33.081 35.6672 32.5388 35.8341 31.5461 35.8778C30.4697 35.9255 30.1468 35.9374 27.4239 35.9374C24.6971 35.9374 24.3742 35.9255 23.3018 35.8778C22.3051 35.8341 21.7669 35.6672 21.4081 35.5282C20.9337 35.3454 20.5908 35.1229 20.236 34.7693C19.8772 34.4117 19.658 34.0739 19.4746 33.6011C19.335 33.2435 19.1676 32.7031 19.1238 31.7138C19.0759 30.641 19.064 30.3191 19.064 27.6053C19.064 24.8876 19.0759 24.5657 19.1238 23.4969C19.1676 22.5036 19.335 21.9672 19.4746 21.6096C19.658 21.1367 19.8812 20.795 20.236 20.4414C20.5948 20.0838 20.9337 19.8653 21.4081 19.6825C21.7669 19.5434 22.3091 19.3765 23.3018 19.3328C24.3742 19.2852 24.6971 19.2732 27.4239 19.2732ZM27.4239 17.4415C24.6532 17.4415 24.3064 17.4534 23.218 17.5011C22.1337 17.5488 21.3882 17.7236 20.7423 17.974C20.0686 18.2362 19.4985 18.5819 18.9324 19.1501C18.3623 19.7143 18.0155 20.2825 17.7523 20.95C17.5012 21.5976 17.3258 22.3367 17.2779 23.4174C17.2301 24.5061 17.2181 24.8518 17.2181 27.6133C17.2181 30.3748 17.2301 30.7204 17.2779 31.8052C17.3258 32.8859 17.5012 33.6289 17.7523 34.2726C18.0155 34.9441 18.3623 35.5123 18.9324 36.0765C19.4985 36.6407 20.0686 36.9904 20.7383 37.2486C21.3882 37.499 22.1297 37.6738 23.214 37.7215C24.3024 37.7691 24.6492 37.7811 27.42 37.7811C30.1907 37.7811 30.5375 37.7691 31.6259 37.7215C32.7102 37.6738 33.4557 37.499 34.1016 37.2486C34.7713 36.9904 35.3414 36.6407 35.9075 36.0765C36.4736 35.5123 36.8244 34.9441 37.0836 34.2766C37.3347 33.6289 37.5101 32.8899 37.558 31.8091C37.6058 30.7244 37.6178 30.3787 37.6178 27.6173C37.6178 24.8558 37.6058 24.5101 37.558 23.4254C37.5101 22.3446 37.3347 21.6016 37.0836 20.9579C36.8324 20.2825 36.4856 19.7143 35.9155 19.1501C35.3494 18.5859 34.7793 18.2362 34.1095 17.9779C33.4597 17.7276 32.7182 17.5528 31.6338 17.5051C30.5415 17.4534 30.1947 17.4415 27.4239 17.4415Z" fill="#858585"/>
<path d="M27.424 22.3888C24.5297 22.3888 22.1815 24.7291 22.1815 27.6137C22.1815 30.4984 24.5297 32.8387 27.424 32.8387C30.3183 32.8387 32.6664 30.4984 32.6664 27.6137C32.6664 24.7291 30.3183 22.3888 27.424 22.3888ZM27.424 31.003C25.5462 31.003 24.0233 29.4852 24.0233 27.6137C24.0233 25.7423 25.5462 24.2245 27.424 24.2245C29.3017 24.2245 30.8246 25.7423 30.8246 27.6137C30.8246 29.4852 29.3017 31.003 27.424 31.003Z" fill="#858585"/>
<path d="M34.0976 22.1817C34.0976 22.8572 33.5474 23.4015 32.8737 23.4015C32.196 23.4015 31.6498 22.8532 31.6498 22.1817C31.6498 21.5063 32.1999 20.9619 32.8737 20.9619C33.5474 20.9619 34.0976 21.5102 34.0976 22.1817Z" fill="#858585"/>
</svg>
