<svg width="55" height="55" viewBox="0 0 55 55" fill="none" xmlns="http://www.w3.org/2000/svg">
<rect x="1.04117" y="1.16867" width="53.0702" height="52.8886" stroke="#858585" stroke-width="1.36077"/>
<path d="M36.271 17.4409H18.8773C18.0441 17.4409 17.3704 18.0965 17.3704 18.9071V36.3143C17.3704 37.1248 18.0441 37.7844 18.8773 37.7844H36.271C37.1042 37.7844 37.782 37.1248 37.782 36.3183V18.9071C37.782 18.0965 37.1042 17.4409 36.271 17.4409ZM23.4261 34.7766H20.3962V25.0658H23.4261V34.7766ZM21.9111 23.7426C20.9384 23.7426 20.153 22.9599 20.153 21.9944C20.153 21.0288 20.9384 20.2461 21.9111 20.2461C22.8799 20.2461 23.6653 21.0288 23.6653 21.9944C23.6653 22.9559 22.8799 23.7426 21.9111 23.7426ZM34.7641 34.7766H31.7382V30.0563C31.7382 28.9318 31.7183 27.4815 30.1635 27.4815C28.5888 27.4815 28.3496 28.7093 28.3496 29.9768V34.7766H25.3277V25.0658H28.23V26.3929H28.2698C28.6725 25.63 29.6612 24.8234 31.1323 24.8234C34.198 24.8234 34.7641 26.8339 34.7641 29.4484V34.7766Z" fill="#858585"/>
</svg>
