<svg width="55" height="55" viewBox="0 0 55 55" fill="none" xmlns="http://www.w3.org/2000/svg">
<rect x="1.19363" y="1.16867" width="53.0702" height="52.8886" stroke="#858585" stroke-width="1.36077"/>
<path d="M17.523 37.7844L18.9578 32.5604C18.0724 31.0312 17.6072 29.2978 17.6081 27.5203C17.6106 21.9631 22.1479 17.4409 27.7228 17.4409C30.4282 17.4418 32.9678 18.492 34.8779 20.3975C36.7873 22.303 37.8385 24.8358 37.8376 27.5296C37.8351 33.0876 33.2977 37.6098 27.7228 37.6098C26.0304 37.609 24.3626 37.186 22.8853 36.3824L17.523 37.7844ZM23.1336 34.5574C24.559 35.4008 25.9198 35.906 27.7194 35.9069C32.3529 35.9069 36.1273 32.1484 36.1299 27.5279C36.1316 22.8981 32.375 19.1447 27.7262 19.143C23.0894 19.143 19.3175 22.9015 19.3158 27.5211C19.315 29.4071 19.8695 30.8193 20.8008 32.2968L19.9511 35.389L23.1336 34.5574ZM32.8181 29.9259C32.7551 29.8208 32.5867 29.7581 32.3333 29.6318C32.0807 29.5055 30.8382 28.896 30.606 28.8121C30.3746 28.7282 30.2062 28.6858 30.037 28.9384C29.8686 29.1901 29.3838 29.7581 29.2367 29.9259C29.0896 30.0937 28.9416 30.1149 28.689 29.9886C28.4364 29.8623 27.6216 29.597 26.6563 28.7383C25.9054 28.0704 25.3976 27.2456 25.2505 26.993C25.1034 26.7413 25.2352 26.6048 25.3611 26.4794C25.475 26.3666 25.6136 26.1852 25.7404 26.0377C25.8688 25.8919 25.9105 25.7868 25.9955 25.6182C26.0797 25.4503 26.038 25.3028 25.9742 25.1765C25.9105 25.0511 25.4053 23.811 25.1952 23.3066C24.9894 22.8158 24.781 22.882 24.6262 22.8743L24.1415 22.8659C23.9731 22.8659 23.6992 22.9286 23.4679 23.1812C23.2365 23.4338 22.5834 24.0424 22.5834 25.2825C22.5834 26.5226 23.4891 27.7203 23.615 27.8882C23.7417 28.056 25.3968 30.6006 27.9321 31.6915C28.535 31.9509 29.0062 32.106 29.3728 32.2222C29.9783 32.4137 30.5294 32.3866 30.9649 32.3222C31.4505 32.2501 32.46 31.7127 32.6709 31.1245C32.8819 30.5353 32.8819 30.031 32.8181 29.9259Z" fill="#858585"/>
</svg>
